<?xml version="1.0" encoding="UTF-8"?>
<svg version="1.1" xmlns="http://www.w3.org/2000/svg" width="1024" height="1024">
<path d="M0 0 C337.92 0 675.84 0 1024 0 C1024 337.92 1024 675.84 1024 1024 C686.08 1024 348.16 1024 0 1024 C0 686.08 0 348.16 0 0 Z " fill="#2869AE" transform="translate(0,0)"/>
<path d="M0 0 C1.57466733 -0.08711316 3.14926936 -0.17541345 4.72380996 -0.26478797 C9.02902978 -0.50352734 13.33514163 -0.71820336 17.64191055 -0.92690504 C20.40163581 -1.06222185 23.16096246 -1.2039712 25.92026901 -1.34755898 C61.2639714 -3.17965876 96.62929344 -4.29170577 132.00944485 -5.12985979 C137.83434523 -5.2679473 143.65911771 -5.41087092 149.48382568 -5.55683899 C151.22204136 -5.60026839 151.22204136 -5.60026839 152.9953725 -5.64457516 C170.35982112 -6.09031423 187.68121693 -6.90057226 205.02093506 -7.91523743 C231.86105263 -9.46516694 258.67071783 -10.43567165 285.55804443 -10.47993469 C286.64653159 -10.48277487 287.73501875 -10.48561506 288.85649037 -10.48854131 C351.07232319 -10.55618038 395.76055195 -0.70364357 440.72302246 44.15731812 C461.41616 65.22220446 480.33286945 88.11864731 497.41673303 112.19312173 C502.07937497 118.75180786 506.69884725 123.97323335 512.79241943 129.21928406 C515.37840334 131.49375505 517.77773064 133.70737535 519.91741943 136.40678406 C521.91511603 138.82504836 523.4224768 140.14304658 525.88632518 141.94224447 C528.85677959 144.4721381 529.25209516 145.10401929 530.16641158 149.13467461 C530.20153336 150.61917356 530.19853283 152.10488341 530.16492748 153.58941746 C530.17420278 154.41468375 530.18347807 155.23995005 530.19303444 156.09022442 C530.21561891 158.86250484 530.18821456 161.63202833 530.16111755 164.40423584 C530.16703361 166.40893794 530.17601226 168.41363295 530.18779403 170.41830915 C530.21124431 175.93253482 530.19091831 181.44587049 530.16351497 186.96004617 C530.14154376 192.90506392 530.15985337 198.84997371 530.17314148 204.79499817 C530.19159948 215.77163045 530.17843694 226.74798592 530.14947296 237.72458274 C530.12289732 247.8689053 530.11059086 258.01312657 530.11231422 268.15748405 C530.11246321 269.16676179 530.11246321 269.16676179 530.1126152 270.19642897 C530.11304927 272.92781833 530.11356451 275.65920766 530.1141924 278.39059699 C530.11997148 304.02210654 530.08735189 329.65343627 530.03580651 355.28488803 C529.99022474 378.0438971 529.971897 400.80276014 529.97869873 423.56181335 C529.97912599 425.02215706 529.9795528 426.48250076 529.97997918 427.94284446 C529.98019088 428.66481745 529.98040257 429.38679043 529.98062068 430.13064139 C529.98167586 433.76516209 529.98268081 437.3996828 529.98363018 441.03420353 C529.98391594 442.10981383 529.98391594 442.10981383 529.98420748 443.20715364 C529.98893246 462.2326475 529.97436089 481.25812493 529.95346576 500.28360647 C529.95272535 500.96082912 529.95198493 501.63805177 529.95122208 502.33579632 C529.95048226 503.01176964 529.94974243 503.68774296 529.94898019 504.38420032 C529.948242 505.05892102 529.94750381 505.73364172 529.94674326 506.4288085 C529.94524818 507.78762195 529.94373638 509.14643539 529.94220773 510.5052488 C529.93168061 519.96631527 529.92806862 529.42736168 529.92909024 538.88843352 C529.93034097 551.08835599 529.91776274 563.2881555 529.88301732 575.48803366 C529.86656698 581.36908462 529.85635296 587.24996296 529.8634491 593.13103676 C529.86973659 598.51943719 529.85742559 603.90746945 529.83052597 609.29580348 C529.82399796 611.24064995 529.82411294 613.18553302 529.83170363 615.13037563 C529.88077029 629.10137992 529.48342611 642.54694176 519.29241943 653.28178406 C518.705896 653.90826843 518.11937256 654.53475281 517.51507568 655.18022156 C506.67894964 665.6839511 493.50076229 664.85409031 479.40286255 664.7829895 C477.26725762 664.78688509 475.13165529 664.7925276 472.99605906 664.7997604 C467.14358104 664.81449558 461.29137261 664.80434515 455.43890333 664.79002368 C449.12119705 664.77890702 442.80352837 664.79085876 436.48582458 664.79986572 C424.83081313 664.81299033 413.17591156 664.80802129 401.52090569 664.79379044 C390.75430236 664.78072927 379.98772996 664.77554451 369.22111893 664.7781086 C368.5064399 664.77826901 367.79176087 664.77842943 367.05542491 664.7785947 C364.15419877 664.77925831 361.25297264 664.77996072 358.35174653 664.78072005 C331.14841332 664.78774069 303.94513457 664.77226362 276.74181523 664.74609659 C252.5789787 664.72297736 228.41620202 664.71759554 204.25335693 664.72782898 C198.06455678 664.73043104 191.87575663 664.73301607 185.68695641 664.7354269 C184.92501501 664.73572435 184.16307362 664.7360218 183.37804309 664.73632826 C163.17931971 664.74394418 142.98060122 664.73753016 122.78188002 664.72673088 C120.60835985 664.72558309 118.43483967 664.72443991 116.26131949 664.72330406 C114.81950459 664.72254881 113.3776897 664.72178317 111.93587481 664.72100705 C101.17526612 664.7153508 90.41467292 664.71667724 79.65406418 664.72123528 C67.41918236 664.72634418 55.18437511 664.720186 42.9495046 664.70034098 C36.70641196 664.69046435 30.46341362 664.685368 24.22031593 664.69323349 C18.50610613 664.70028543 12.79208672 664.69349683 7.07790203 664.67562986 C5.01012031 664.67158229 2.94232126 664.6725904 0.87454598 664.67914873 C-1.93609541 664.68730067 -4.74609553 664.67698431 -7.55669594 664.66210079 C-8.76068466 664.67220727 -8.76068466 664.67220727 -9.98899639 664.68251792 C-20.23248073 664.57762591 -29.03837247 660.64863439 -36.46539307 653.61772156 C-42.05463183 647.46675026 -45.82815101 640.31024269 -45.83638173 631.90324432 C-45.83965393 631.02647693 -45.84292612 630.14970954 -45.84629747 629.24637344 C-45.84481385 628.28561644 -45.84333023 627.32485944 -45.84180164 626.33498859 C-45.84415387 625.30822676 -45.8465061 624.28146492 -45.84892961 623.22358909 C-45.85563001 619.7548025 -45.85516108 616.28605327 -45.85475159 612.81726074 C-45.85804955 610.31646835 -45.86177498 607.81567649 -45.86589307 605.31488532 C-45.8748748 599.14453285 -45.8791419 592.97419159 -45.88141203 586.80383347 C-45.88437285 579.41500243 -45.89306952 572.02618093 -45.90182631 564.63735489 C-45.92267596 546.7777733 -45.93314107 528.91819005 -45.94195592 511.05859913 C-45.94616142 502.6115955 -45.95138352 494.16459257 -45.95664045 485.71758954 C-45.97453049 456.8086117 -45.98952728 427.89963367 -45.99696064 398.99065113 C-45.9974354 397.17556478 -45.99791129 395.36047843 -45.9983883 393.54539208 C-45.99862468 392.64526433 -45.99886105 391.74513658 -45.99910459 390.81773224 C-46.0003058 386.25716552 -46.00152125 381.69659881 -46.00274658 377.1360321 C-46.00298673 376.23097097 -46.00322688 375.32590983 -46.00347431 374.3934226 C-46.01136903 345.04244514 -46.03480451 315.69150807 -46.06730253 286.34054826 C-46.1015902 255.31666503 -46.12131076 224.29280544 -46.12460488 193.26890296 C-46.12502243 189.86406973 -46.12550199 186.45923652 -46.12602806 183.05440331 C-46.12615125 182.21602377 -46.12627444 181.37764424 -46.12640137 180.51385927 C-46.12873464 167.01465829 -46.14440157 153.51550418 -46.16486991 140.01631992 C-46.18511254 126.45092539 -46.1906126 112.88558723 -46.18109927 99.32018039 C-46.17587834 91.25912321 -46.18178968 83.19825353 -46.20363394 75.13722329 C-46.21870701 69.12070844 -46.21291888 63.10440511 -46.19896343 57.08787962 C-46.19657398 54.65178199 -46.20097956 52.21566647 -46.21279208 49.77959631 C-46.22783974 46.47200271 -46.21828682 43.16535505 -46.20256519 39.85778522 C-46.2127874 38.90873405 -46.22300961 37.95968288 -46.23354158 36.98187259 C-46.13239682 27.25308537 -42.23387174 19.41991503 -35.70758057 12.28178406 C-25.37556793 2.39372509 -13.78074471 0.65866951 0 0 Z " fill="#FCF9F5" transform="translate(258.70758056640625,178.7182159423828)"/>
<path d="M0 0 C2.42913379 -0.01657779 4.85821845 -0.04389137 7.28710938 -0.08203125 C27.62188413 -0.39715038 47.30230665 1.05848259 65.77392578 10.35009766 C66.68916016 10.78966797 67.60439453 11.22923828 68.54736328 11.68212891 C75.74082832 15.33931071 81.74290352 20.01859835 87.77392578 25.35009766 C88.41072266 25.89150391 89.04751953 26.43291016 89.70361328 26.99072266 C101.87144954 38.09317233 110.77168777 56.75792142 111.97729492 73.1081543 C112.07646798 76.06669297 112.09606152 79.01499966 112.08642578 81.97509766 C112.10253906 82.97283203 112.11865234 83.97056641 112.13525391 84.99853516 C112.13915861 90.90244966 111.65856228 95.16051237 108.77392578 100.35009766 C103.42640595 105.5605016 98.64323719 105.49840519 91.47476196 105.49053955 C90.63028232 105.49351067 89.78580268 105.4964818 88.91573274 105.49954295 C86.08150714 105.50822565 83.24732379 105.50973783 80.41308594 105.51123047 C78.38284719 105.51585888 76.3526093 105.52088357 74.32237244 105.52627563 C68.80378772 105.53939789 63.28521518 105.54584406 57.7666173 105.55028629 C54.31986737 105.55321681 50.87312078 105.55732154 47.42637253 105.56179047 C36.64513878 105.57546385 25.86391263 105.58513175 15.08267081 105.58899236 C2.63159145 105.5934753 -9.81937824 105.61103488 -22.27042425 105.63999295 C-31.89175275 105.66159432 -41.51305037 105.67169578 -51.13440287 105.67303348 C-56.88244441 105.67408245 -62.63038285 105.68001014 -68.3783989 105.69785309 C-73.78415516 105.71430739 -79.18973051 105.71650208 -84.59550285 105.70771408 C-86.57966152 105.70694234 -88.56382982 105.71130443 -90.5479641 105.72117233 C-93.25650683 105.73385328 -95.96440505 105.72803604 -98.67294312 105.71759033 C-99.85077427 105.72967494 -99.85077427 105.72967494 -101.05239999 105.74200368 C-106.56448982 105.69228197 -110.70763524 104.59336278 -114.87060547 100.88525391 C-120.91494053 93.26413579 -119.92319266 83.67034873 -119.22607422 74.35009766 C-116.10840813 51.58824851 -104.3853369 31.26394208 -86.06591797 17.29150391 C-70.70058939 6.78728341 -54.09660841 1.70045539 -35.53076172 0.81103516 C-34.67441132 0.76981537 -33.81806091 0.72859558 -32.9357605 0.68612671 C-21.96154115 0.20064482 -10.98385983 0.05457269 0 0 Z " fill="#144078" transform="translate(428.22607421875,417.64990234375)"/>
<path d="M0 0 C12.35753214 10.37728046 21.98143046 25.99067743 23.5690918 42.27514648 C24.48592722 61.15335479 20.87596679 77.84882736 8.51171875 92.62109375 C-2.65292096 104.9142891 -16.89396947 113.40267182 -33.70703125 114.41796875 C-54.50923964 115.04442336 -70.60612972 108.49508417 -85.77734375 94.25390625 C-98.8153283 80.72343322 -103.10983537 64.27181013 -102.859375 46.05859375 C-102.3587949 29.39511134 -94.09374295 13.96449345 -82.12109375 2.6015625 C-75.83734998 -2.82448636 -69.31170333 -6.80980016 -61.65234375 -9.99609375 C-60.85054688 -10.33640625 -60.04875 -10.67671875 -59.22265625 -11.02734375 C-39.09922723 -17.97089114 -16.48975083 -12.40981248 0 0 Z " fill="#144078" transform="translate(463.65234375,290.99609375)"/>
<path d="M0 0 C1.02449619 -0.00654048 1.02449619 -0.00654048 2.06968927 -0.0132131 C4.36320951 -0.02418007 6.65612993 -0.01374101 8.949646 -0.00342751 C10.60857069 -0.00688351 12.26749309 -0.01164768 13.92641068 -0.01760924 C18.48895584 -0.03015683 23.05131325 -0.02393179 27.61385918 -0.01465058 C32.53280803 -0.00787581 37.45172411 -0.01833351 42.3706665 -0.02659035 C52.00843191 -0.03994668 61.64612732 -0.03704148 71.28389549 -0.02835242 C79.11507111 -0.02158376 86.94622708 -0.02065562 94.77740479 -0.02392387 C95.89097894 -0.02438357 97.00455309 -0.02484327 98.15187192 -0.0253169 C100.4139096 -0.02627605 102.67594727 -0.02724869 104.93798494 -0.02823468 C126.16086607 -0.03679414 147.38370836 -0.02694571 168.60658312 -0.01083358 C186.8261001 0.0025701 205.04555974 0.00024217 223.26507568 -0.01358986 C244.41079528 -0.02963585 265.55648082 -0.03597011 286.70220566 -0.02675307 C288.95603179 -0.0257974 291.20985794 -0.02485429 293.46368408 -0.02392387 C294.57267791 -0.02346105 295.68167174 -0.02299822 296.82427144 -0.02252137 C304.64817575 -0.01992854 312.4720585 -0.02430879 320.29595947 -0.03136253 C329.8276204 -0.03976684 339.35920719 -0.03751994 348.8908596 -0.0215203 C353.75624549 -0.01362317 358.62150766 -0.01057051 363.4868927 -0.02046776 C367.93792556 -0.02938534 372.38871964 -0.02453045 376.83973074 -0.0085351 C378.45271235 -0.00517481 380.065714 -0.00690925 381.6786828 -0.01416247 C383.86644076 -0.02324824 386.05337436 -0.01396658 388.24108887 0 C389.45766048 0.00048706 390.6742321 0.00097411 391.92766953 0.00147593 C396.72983355 0.5670608 399.22412758 2.35660423 402.37054443 5.94002342 C405.29127319 10.00818134 405.3025333 12.18341972 404.69085693 17.05330467 C403.7405965 20.92594137 402.03526793 22.66153107 399.12054443 25.37752342 C395.10418408 27.42607581 391.73525719 27.62959388 387.25949955 27.63479233 C386.57849006 27.6382984 385.89748057 27.64180448 385.19583443 27.6454168 C382.90918698 27.65473587 380.62279394 27.64980625 378.33613586 27.64494896 C376.68204968 27.64868495 375.02796527 27.65328627 373.37388366 27.6586796 C368.82471279 27.67093106 364.27561534 27.67064662 359.72643173 27.66829085 C354.82178031 27.66788324 349.91715261 27.67891648 345.01251221 27.68840599 C335.4025039 27.70502809 325.79252012 27.71051606 316.18249864 27.71163075 C308.37326374 27.71258053 300.56403695 27.71668732 292.75480461 27.723032 C270.62438633 27.74064673 248.49398746 27.74987036 226.36356211 27.74837105 C225.17018024 27.74829114 223.97679837 27.74821122 222.74725342 27.74812889 C221.55241826 27.74804713 220.35758311 27.74796537 219.12654083 27.74788113 C199.75393219 27.74706788 180.38140123 27.76621469 161.00881506 27.79440562 C141.12718407 27.82310958 121.245591 27.83694733 101.36393875 27.83521807 C90.19781364 27.83455337 79.03177 27.84008089 67.86566353 27.86157417 C58.36037297 27.87975312 48.85520082 27.88416031 39.34990043 27.87055533 C34.49852611 27.86400939 29.64737916 27.86396697 24.79602623 27.88126183 C20.35660746 27.89692571 15.91759761 27.89419775 11.47818922 27.87669356 C9.87056917 27.87360889 8.26291909 27.87731095 6.65533442 27.88841371 C4.47220248 27.90249519 2.29051288 27.89198188 0.10743046 27.87530136 C-1.10572368 27.8757361 -2.31887781 27.87617083 -3.56879419 27.87661874 C-8.44085566 27.14213617 -11.58018824 24.8933353 -14.75445557 21.19002342 C-16.35993539 17.17632387 -16.55612936 13.64056832 -15.87945557 9.37752342 C-12.27075142 2.16011513 -7.88436709 0.00315652 0 0 Z " fill="#133D77" transform="translate(315.87945556640625,650.6224765777588)"/>
<path d="M0 0 C0.68269786 -0.00465992 1.36539573 -0.00931984 2.06878141 -0.01412097 C4.36128605 -0.02609214 6.65320036 -0.01666772 8.94571018 -0.00736332 C10.60392272 -0.01153532 12.26213241 -0.0170121 13.92033678 -0.02368313 C18.48094571 -0.03817406 23.04137449 -0.03388166 27.60199344 -0.02651632 C32.51892074 -0.02179596 37.43580842 -0.03428443 42.35272312 -0.04453373 C51.98680903 -0.06174922 61.62082979 -0.06255606 71.25492709 -0.05732083 C79.08371132 -0.05328308 86.91247627 -0.05471798 94.74125957 -0.06006908 C96.41118772 -0.06119172 96.41118772 -0.06119172 98.11485179 -0.06233703 C100.37632374 -0.06386847 102.63779568 -0.06540682 104.89926762 -0.066952 C126.11740761 -0.08068694 147.33551075 -0.07523232 168.55364991 -0.06376678 C187.97476076 -0.05383292 207.39577637 -0.06677599 226.81687253 -0.09070098 C246.74822844 -0.11506998 266.67953996 -0.12470529 286.61091048 -0.11804825 C297.80497607 -0.11455119 308.99896838 -0.11682016 320.19302273 -0.13429928 C329.72210813 -0.14899376 339.25106866 -0.1496928 348.78015154 -0.13222837 C353.6436728 -0.12369334 358.5069707 -0.1216297 363.37048054 -0.13687992 C367.82100891 -0.15066263 372.27112125 -0.14604702 376.72162516 -0.12664068 C378.33327983 -0.12286057 379.94496733 -0.1258602 381.55659293 -0.13625234 C383.74517721 -0.14936343 385.93231299 -0.1378937 388.12083435 -0.12025452 C389.33702625 -0.12014718 390.55321814 -0.12003984 391.80626434 -0.11992925 C395.81987532 0.48536118 397.97523375 1.86081056 401.12333775 4.38031673 C404.03370975 8.74587473 404.77396265 12.17531752 404.12333775 17.38031673 C401.38448651 22.46675474 398.61321695 25.550357 393.12333775 27.38031673 C390.93136828 27.47690721 388.73651076 27.51128689 386.54241657 27.51453781 C385.52987839 27.51806616 385.52987839 27.51806616 384.49688488 27.52166578 C382.21860563 27.52836102 379.94038334 27.5278974 377.66209507 27.52748775 C376.01869852 27.53078605 374.37530278 27.53451154 372.73190808 27.53862923 C368.20297125 27.54866117 363.67404768 27.55236794 359.14510131 27.55501854 C354.26562323 27.55891802 349.38615567 27.56849655 344.5066843 27.57723141 C332.71692255 27.59700511 320.92715992 27.60706282 309.13738573 27.6159592 C303.58847489 27.6203403 298.03956502 27.62570754 292.49065495 27.63094807 C274.05050829 27.64796066 255.61036223 27.6624558 237.17020893 27.66969681 C232.3835891 27.67160677 227.59696928 27.67352709 222.81034946 27.67548275 C221.62062685 27.67596649 220.43090423 27.67645023 219.20512941 27.67694863 C199.92360426 27.68525256 180.64214108 27.71059547 161.360643 27.74306343 C141.57512585 27.77610914 121.78964022 27.79414328 102.00409532 27.79734105 C90.89099966 27.79950837 79.77799438 27.80828953 68.66492558 27.83380222 C59.20244064 27.85547517 49.74006804 27.86357641 40.2775611 27.85383544 C35.44834979 27.84928096 30.61937042 27.85124355 25.7901907 27.87059689 C21.36976777 27.88815938 16.94974718 27.88728732 12.52932039 27.87169959 C10.92969501 27.86931298 9.33004227 27.87370142 7.73045883 27.88552824 C-7.23105023 27.98930213 -7.23105023 27.98930213 -12.87666225 23.38031673 C-15.61872308 19.48835943 -16.42489759 16.01279755 -16.22822475 11.33734798 C-15.45758939 7.04747778 -13.07560776 4.27040093 -9.6619224 1.73611778 C-6.23109926 0.06607141 -3.81140611 0.0032256 0 0 Z " fill="#133E77" transform="translate(315.8766622543335,584.619683265686)"/>
<path d="M0 0 C6.40711737 5.28202843 12.23372032 11.09911828 18.08837891 16.97485352 C19.19437015 18.08112727 20.30058251 19.18718001 21.40699768 20.29302979 C24.39460349 23.28034995 27.37912604 26.27073309 30.36308718 29.26169324 C33.4939479 32.39883372 36.62766803 35.53311533 39.76107788 38.66770935 C45.69261352 44.60234755 51.62159765 50.539528 57.54965723 56.47763819 C64.28105176 63.22019975 71.01527472 69.95993331 77.74974561 76.699422 C89.26354026 88.22189266 100.77524017 99.74645256 112.28453064 111.27342224 C112.77131267 111.76094387 113.2580947 112.24846549 113.7596277 112.7507605 C115.05295764 114.04607086 116.34625578 115.34141298 117.63955116 116.63675785 C118.41849928 117.41662776 119.1974474 118.19649767 120 119 C120.87785849 119.88323409 121.75571697 120.76646818 122.66017723 121.67646694 C124.86724917 123.86817338 127.14358168 125.90882296 129.5 127.9375 C132.0859839 130.21197099 134.4853112 132.42559129 136.625 135.125 C138.62345294 137.54417987 140.12932654 138.85955961 142.59460407 140.65819085 C145.57248615 143.19452693 145.96021237 143.82298778 146.86938947 147.86784923 C146.90236718 149.35951957 146.89716409 150.85234189 146.8613348 152.34394646 C146.86941171 153.17310751 146.87748862 154.00226856 146.88581029 154.8565557 C146.90437708 157.64200168 146.87291548 160.42462895 146.84178162 163.20993042 C146.84483364 165.22389328 146.85096176 167.23785344 146.85990578 169.25179875 C146.87558164 174.79116413 146.84752702 180.32958476 146.81245935 185.86882973 C146.78227236 191.84015015 146.79245673 197.8114159 146.79777527 203.78279114 C146.80144842 214.13024795 146.7797021 224.4774181 146.7401104 234.82479477 C146.69869284 245.67717831 146.67174916 256.52943879 146.6641407 267.38190079 C146.66365952 268.05663923 146.66317835 268.73137768 146.66268259 269.42656274 C146.66031426 272.85321075 146.65820457 276.27985887 146.65619446 279.7065071 C146.64149108 303.97824997 146.59432834 328.24983207 146.52807617 352.52148438 C146.46378693 376.10122828 146.41420081 399.6809282 146.38452148 423.26074219 C146.3836008 423.98755826 146.38268012 424.71437433 146.38173154 425.46321513 C146.37250191 432.76219285 146.36357121 440.06117091 146.35485952 447.36014927 C146.33710597 462.22904432 146.3173572 477.09793651 146.29640198 491.96682739 C146.29544095 492.65047676 146.29447992 493.33412612 146.29348977 494.03849214 C146.22908377 539.69239597 146.11802163 585.34620667 146 631 C145.67 631 145.34 631 145 631 C145 470.95 145 310.9 145 146 C106.39 146 67.78 146 28 146 C16.21407874 141.08919947 8.55453433 137.26435658 3 126 C0.13705567 118.71777625 -0.42042313 111.98002705 -0.34057617 104.21630859 C-0.34101425 103.08343414 -0.34145233 101.95055969 -0.34190369 100.78335571 C-0.33982832 97.0715356 -0.316556 93.36017786 -0.29296875 89.6484375 C-0.28736836 87.06198371 -0.28310035 84.47552672 -0.28010559 81.8890686 C-0.26985584 75.79776894 -0.24625747 69.70665759 -0.21605712 63.61542857 C-0.18239939 56.67460222 -0.16599867 49.73376761 -0.15097082 42.79287982 C-0.11970408 28.52849909 -0.06701506 14.26425537 0 0 Z " fill="#79B2DE" transform="translate(642,180)"/>
<path d="M0 0 C1.11049145 -0.00583219 2.22098289 -0.01166439 3.3651256 -0.01767331 C4.57989928 -0.01389399 5.79467296 -0.01011467 7.04625797 -0.00622082 C8.3407828 -0.01004636 9.63530763 -0.01387191 10.96906048 -0.01781338 C14.5605094 -0.02810815 18.15185866 -0.02590783 21.74331582 -0.02163279 C25.61728218 -0.01916826 29.49122438 -0.02817631 33.36518192 -0.03567028 C40.95386395 -0.04842672 48.54251061 -0.05020981 56.13120156 -0.04787002 C62.29856022 -0.04608782 68.46590812 -0.04783438 74.6332655 -0.05209446 C75.51064522 -0.05268965 76.38802495 -0.05328484 77.29199194 -0.05389806 C79.07431888 -0.0551098 80.85664583 -0.05632393 82.63897277 -0.05754044 C99.35762105 -0.06841954 116.07624916 -0.06625168 132.79489858 -0.06015559 C148.09358759 -0.05498562 163.39221294 -0.06624335 178.69088935 -0.08525381 C194.39599499 -0.10461987 210.1010705 -0.11289041 225.80618817 -0.10913056 C234.62486431 -0.1072167 243.44348626 -0.10972405 252.26215267 -0.1238451 C259.76919584 -0.13574414 267.27615145 -0.13718039 274.78319579 -0.12505493 C278.61380982 -0.11915595 282.44426359 -0.11809484 286.27486706 -0.13005733 C290.42616805 -0.14287076 294.57708574 -0.13247605 298.72838688 -0.11974621 C299.94092984 -0.12712049 301.1534728 -0.13449478 302.40275949 -0.14209253 C312.67087821 -0.0756136 312.67087821 -0.0756136 317.45081425 3.25447559 C322.40864087 8.74828347 322.40864087 8.74828347 322.50550175 12.20760059 C322.03737542 18.19147623 320.87203488 21.13470183 316.45081425 25.25447559 C312.82314713 27.04014039 309.91062833 27.5058442 305.88880444 27.5117445 C304.77544629 27.51819339 303.66208815 27.52464228 302.51499188 27.5312866 C300.68801811 27.52664079 300.68801811 27.52664079 298.82413578 27.52190113 C297.52623297 27.52643224 296.22833015 27.53096336 294.89109695 27.53563178 C291.29018194 27.54786754 287.68935979 27.54760064 284.08842874 27.54524302 C280.20421462 27.54483501 276.32003034 27.55587252 272.43583012 27.56535816 C264.82676365 27.58197196 257.21772818 27.58746787 249.6086451 27.58858292 C243.42413208 27.58953315 237.23962929 27.59364221 231.05511951 27.59998417 C213.52278067 27.61759712 195.99046632 27.62682288 178.45811857 27.62532322 C177.0403208 27.62520335 177.0403208 27.62520335 175.59388065 27.62508106 C174.64752884 27.6249993 173.70117702 27.62491754 172.72614788 27.6248333 C157.38608525 27.62402024 142.04612077 27.64316276 126.70608653 27.6713578 C110.9569046 27.70007659 95.20777056 27.71389867 79.45856178 27.71217024 C70.61579962 27.71150602 61.77314038 27.71701233 52.9304018 27.73852634 C45.40214359 27.75672486 37.87403496 27.76109641 30.34576429 27.7475075 C26.50485222 27.74097125 22.6642272 27.74088405 18.82334232 27.758214 C14.65916361 27.77680942 10.49565136 27.76440758 6.33146 27.74895191 C5.11793893 27.75923904 3.90441786 27.76952616 2.65412343 27.78012502 C-3.97147696 27.72564531 -8.18627544 27.26480137 -13.54918575 23.25447559 C-16.70218526 19.69463744 -17.18801578 16.16556 -17.03356075 11.53963184 C-16.17714302 7.49927401 -13.75113057 4.76185538 -10.54918575 2.25447559 C-6.90014731 0.5276071 -4.02226221 0.00363994 0 0 Z " fill="#133E77" transform="translate(316.54918575286865,716.7455244064331)"/>
<path d="M0 0 C1.04859695 -0.00708481 2.09719391 -0.01416962 3.17756653 -0.02146912 C4.89511894 -0.01775299 4.89511894 -0.01775299 6.64736938 -0.01396179 C7.85751205 -0.01907272 9.06765472 -0.02418365 10.31446838 -0.02944946 C13.63072678 -0.04096867 16.94673523 -0.04341883 20.2629962 -0.04088616 C23.03378166 -0.03981579 25.80454412 -0.04470163 28.57532465 -0.04949158 C35.11416829 -0.06058487 41.65295448 -0.06102548 48.19180298 -0.05497742 C54.93104228 -0.04893968 61.6700727 -0.06124382 68.40927637 -0.08254749 C74.20049918 -0.10017938 79.99165561 -0.10616227 85.78290427 -0.10290974 C89.23941516 -0.10109894 92.69577711 -0.10371245 96.15226364 -0.11762428 C100.00878808 -0.13256538 103.86504785 -0.12321856 107.72158813 -0.11161804 C109.43306786 -0.12308365 109.43306786 -0.12308365 111.17912292 -0.13478088 C118.17122445 -0.08825927 122.75264288 0.60225947 128.18887329 5.32319641 C130.5754022 9.63730636 130.5633628 13.43923814 129.81387329 18.26069641 C127.76360698 22.77128229 125.61397537 24.81021277 121.02850533 26.65707779 C116.36009488 27.92949661 111.53641877 27.67481853 106.7315979 27.64888 C105.53077072 27.65413696 104.32994354 27.65939392 103.09272766 27.66481018 C99.81586027 27.67571581 96.53935923 27.67321035 93.26249766 27.66367292 C89.82466442 27.6560472 86.38685465 27.66312983 82.94902039 27.66783142 C77.17825971 27.6732798 71.40761446 27.66612081 65.63687134 27.65180969 C58.97424197 27.63547711 52.31188796 27.64077963 45.64926523 27.65728891 C39.91741904 27.67092081 34.18565553 27.67281538 28.45379835 27.6649729 C25.03535008 27.6603067 21.61703109 27.65964252 18.19859123 27.66958237 C14.38778937 27.67720032 10.5775166 27.66558707 6.76675415 27.64888 C5.63983154 27.6549527 4.51290894 27.66102539 3.35183716 27.6672821 C-2.19740641 27.6222084 -6.47324675 27.54791648 -11.18612671 24.26069641 C-14.31752321 20.05803269 -15.97755891 16.55093299 -15.70956421 11.25288391 C-14.55563646 6.86106933 -11.22682097 3.4904383 -7.40381432 1.18665791 C-4.7805043 0.09133499 -2.83997828 0.00640451 0 0 Z " fill="#143F78" transform="translate(592.1861267089844,371.7393035888672)"/>
<path d="M0 0 C1.06679993 -0.00852997 2.13359985 -0.01705994 3.23272705 -0.02584839 C4.39286819 -0.02494202 5.55300934 -0.02403564 6.74830627 -0.02310181 C7.97810211 -0.02981903 9.20789795 -0.03653625 10.47496033 -0.04345703 C13.84073793 -0.0591849 17.20626877 -0.0658111 20.57206607 -0.0670886 C22.67657508 -0.06851216 24.78105838 -0.07278557 26.88556099 -0.07808304 C34.23224144 -0.09657214 41.57884942 -0.10475486 48.92555237 -0.10317993 C55.76654139 -0.10197811 62.60721512 -0.12309101 69.44812435 -0.15466726 C75.3285401 -0.18083989 81.20885291 -0.19154685 87.08932644 -0.19026911 C90.59841545 -0.18975986 94.10722399 -0.19542262 97.61625481 -0.21662521 C101.53018845 -0.23963023 105.44369106 -0.23048059 109.35768127 -0.21841431 C110.51579819 -0.22965332 111.6739151 -0.24089233 112.86712646 -0.25247192 C119.09935432 -0.20359286 122.89073829 0.06055271 127.61769104 4.26742554 C130.41696898 7.20253342 131.02995911 9.17376258 130.99269104 13.20492554 C130.84633383 17.35171326 130.49852592 20.09850717 127.61769104 23.26742554 C121.86827422 27.19722821 115.97870364 26.69733589 109.28175354 26.67147827 C107.42221039 26.68177315 107.42221039 26.68177315 105.52510071 26.692276 C102.13654526 26.70741213 98.74854125 26.70904637 95.35999298 26.70333362 C92.52696441 26.70023696 89.69398534 26.70633938 86.86096382 26.71237236 C80.17631514 26.72640345 73.4917943 26.72486768 66.80714417 26.71347046 C59.91897206 26.70198553 53.03118915 26.7160741 46.14306831 26.74286693 C40.22015713 26.76503977 34.29736799 26.77165793 28.37441826 26.76579052 C24.84076995 26.76242409 21.3073712 26.764815 17.77375793 26.78204155 C13.83356011 26.80041335 9.89383943 26.78630721 5.95362854 26.76913452 C4.78773193 26.77880249 3.62183533 26.78847046 2.42060852 26.7984314 C-3.81758736 26.74144838 -7.66315635 26.50217137 -12.38230896 22.26742554 C-15.52124371 18.605335 -15.96426056 15.17139987 -15.80027771 10.48617554 C-15.06388079 6.57707786 -13.31083888 4.93564169 -10.38230896 2.26742554 C-6.81408774 0.52335555 -3.95203144 0.01433331 0 0 Z " fill="#164079" transform="translate(591.3823089599609,482.7325744628906)"/>
<path d="M0 0 C1.64851707 -0.01919243 1.64851707 -0.01919243 3.33033752 -0.03877258 C5.1242971 -0.03673325 5.1242971 -0.03673325 6.95449829 -0.03465271 C8.22170212 -0.04472855 9.48890594 -0.05480438 10.79450989 -0.06518555 C14.2636251 -0.09163876 17.7325182 -0.09871698 21.20172453 -0.10063291 C23.37124777 -0.10276819 25.54071488 -0.10917821 27.71022415 -0.11712456 C35.28501204 -0.14486239 42.85964176 -0.15713203 50.43447876 -0.1547699 C57.48577765 -0.15296789 64.53638776 -0.18462079 71.58751237 -0.23200089 C77.649701 -0.27127837 83.71166495 -0.2873195 89.77397978 -0.28540367 C93.39110464 -0.28464018 97.00761707 -0.29310988 100.62461472 -0.32493782 C104.66083318 -0.35948664 108.69551623 -0.34571139 112.73184204 -0.32762146 C113.92376663 -0.34447998 115.11569122 -0.3613385 116.34373474 -0.37870789 C122.77968951 -0.30539368 126.64791947 0.24160727 131.28737831 4.88537693 C133.4490015 7.64992517 133.62004483 9.82060199 133.7460022 13.22145081 C133.18632713 17.68286066 130.67060191 20.34831772 127.4100647 23.21363831 C124.0275979 25.28676312 121.24904753 25.5302634 117.37545776 25.54830933 C116.32126648 25.55546463 115.2670752 25.56261993 114.18093872 25.56999207 C112.44632385 25.57402542 112.44632385 25.57402542 110.67666626 25.57814026 C109.45852234 25.58471146 108.24037842 25.59128265 106.98532104 25.59805298 C102.94460811 25.61780187 98.90393487 25.62945397 94.8631897 25.63941956 C93.47064952 25.64346802 92.07810954 25.64758497 90.68556976 25.65176964 C84.14218392 25.6708174 77.59880932 25.6850488 71.05540109 25.69338161 C63.50964113 25.70315025 55.96417482 25.72946144 48.4185183 25.7698825 C42.58145155 25.80007454 36.74446881 25.81485343 30.90732551 25.81816262 C27.42330626 25.82050978 23.93960086 25.82942592 20.45566559 25.85462379 C16.56569596 25.88230403 12.67611052 25.8780639 8.78604126 25.87110901 C7.63772827 25.88391907 6.48941528 25.89672913 5.30630493 25.90992737 C-1.20226913 25.8675101 -5.24735238 25.31051197 -10.5274353 21.40113831 C-13.54612257 17.895566 -14.00687202 14.81226414 -13.81259155 10.32691956 C-13.38046462 7.40858284 -12.40096946 5.66230021 -10.5274353 3.40113831 C-6.90618055 0.82765564 -4.42215395 0.02334519 0 0 Z " fill="#143E78" transform="translate(589.5274353027344,428.59886169433594)"/>
<path d="M0 0 C2.475 0.99 2.475 0.99 5 2 C3.64908907 6.42116304 1.86882275 8.48076658 -2 11 C-4.8125 11.75 -4.8125 11.75 -7 12 C-7.33 11.34 -7.66 10.68 -8 10 C-5.69 9.34 -3.38 8.68 -1 8 C-1.33 7.67 -1.66 7.34 -2 7 C-2.33 6.01 -2.66 5.02 -3 4 C-2.34 4 -1.68 4 -1 4 C-0.67 2.68 -0.34 1.36 0 0 Z " fill="#123672" transform="translate(633,732)"/>
<path d="M0 0 C2 3 2 3 2 6 C2.66 6 3.32 6 4 6 C4.103125 6.598125 4.20625 7.19625 4.3125 7.8125 C5.08876455 10.28243264 6.07088921 11.32251235 8 13 C4.85841051 12.06601394 3.2674852 11.33205059 1.1875 8.75 C-0.16280181 5.62298529 -0.23523553 3.3717092 0 0 Z " fill="#0F306D" transform="translate(300,729)"/>
<path d="M0 0 C0.33 0.99 0.66 1.98 1 3 C1.66 3 2.32 3 3 3 C3.33 5.97 3.66 8.94 4 12 C0.46209597 8.30827405 0.40884117 4.90609405 0 0 Z " fill="#0A2B68" transform="translate(363,355)"/>
<path d="M0 0 C6.75 0.75 6.75 0.75 9 3 C6.03 2.505 6.03 2.505 3 2 C3 2.66 3 3.32 3 4 C2.34 4 1.68 4 1 4 C0.67 2.68 0.34 1.36 0 0 Z " fill="#0A2B69" transform="translate(439,280)"/>
<path d="M0 0 C2 0 4 0 6 0 C5.67 1.32 5.34 2.64 5 4 C3.35 3.67 1.7 3.34 0 3 C0 2.01 0 1.02 0 0 Z " fill="#103973" transform="translate(577,384)"/>
</svg>
